<svg width="1600" height="1000" viewBox="0 0 1600 1000" fill="none" xmlns="http://www.w3.org/2000/svg">
  <defs>
    <linearGradient id="bg" x1="0" y1="0" x2="1600" y2="1000" gradientUnits="userSpaceOnUse">
      <stop stop-color="#0A1A35"/>
      <stop offset="0.55" stop-color="#0B2145"/>
      <stop offset="1" stop-color="#071226"/>
    </linearGradient>
    <linearGradient id="line" x1="0" y1="0" x2="1" y2="1">
      <stop stop-color="#5DA8FF" stop-opacity="0.65"/>
      <stop offset="1" stop-color="#8CC6FF" stop-opacity="0.08"/>
    </linearGradient>
    <radialGradient id="glow" cx="0" cy="0" r="1" gradientUnits="userSpaceOnUse" gradientTransform="translate(1100 280) rotate(120) scale(420 360)">
      <stop stop-color="#2E7BFF" stop-opacity="0.35"/>
      <stop offset="1" stop-color="#2E7BFF" stop-opacity="0"/>
    </radialGradient>
  </defs>

  <rect width="1600" height="1000" fill="url(#bg)"/>
  <rect width="1600" height="1000" fill="url(#glow)"/>

  <g opacity="0.45">
    <circle cx="250" cy="220" r="5" fill="#BFE0FF"/>
    <circle cx="450" cy="340" r="6" fill="#BFE0FF"/>
    <circle cx="640" cy="240" r="4" fill="#BFE0FF"/>
    <circle cx="830" cy="380" r="7" fill="#BFE0FF"/>
    <circle cx="1080" cy="280" r="5" fill="#BFE0FF"/>
    <circle cx="1290" cy="460" r="7" fill="#BFE0FF"/>
    <circle cx="980" cy="620" r="5" fill="#BFE0FF"/>
    <circle cx="760" cy="700" r="6" fill="#BFE0FF"/>
    <circle cx="520" cy="620" r="4" fill="#BFE0FF"/>
    <circle cx="330" cy="760" r="5" fill="#BFE0FF"/>
  </g>

  <g stroke="url(#line)" stroke-width="2">
    <path d="M250 220L450 340L640 240L830 380L1080 280L1290 460"/>
    <path d="M450 340L520 620L760 700L980 620L1290 460"/>
    <path d="M640 240L760 700"/>
    <path d="M330 760L520 620L760 700"/>
    <path d="M830 380L980 620"/>
  </g>

  <g opacity="0.22" stroke="#6EB6FF" stroke-width="1">
    <path d="M0 780H1600"/>
    <path d="M0 650H1600"/>
    <path d="M0 520H1600"/>
  </g>
</svg>
