<svg width="1200" height="900" viewBox="0 0 1200 900" fill="none" xmlns="http://www.w3.org/2000/svg">
  <defs>
    <linearGradient id="bg" x1="0" y1="0" x2="1200" y2="900" gradientUnits="userSpaceOnUse">
      <stop stop-color="#F8FBFF"/>
      <stop offset="1" stop-color="#EAF3FF"/>
    </linearGradient>
    <linearGradient id="card" x1="0" y1="0" x2="1" y2="1">
      <stop stop-color="#FFFFFF"/>
      <stop offset="1" stop-color="#F3F8FF"/>
    </linearGradient>
    <linearGradient id="accent" x1="300" y1="320" x2="900" y2="760" gradientUnits="userSpaceOnUse">
      <stop stop-color="#1E90FF" stop-opacity="0.25"/>
      <stop offset="1" stop-color="#0052CC" stop-opacity="0.07"/>
    </linearGradient>
  </defs>

  <rect width="1200" height="900" rx="30" fill="url(#bg)"/>
  <rect x="120" y="120" width="960" height="660" rx="28" fill="url(#card)" stroke="#D5E5FA"/>
  <rect x="120" y="120" width="960" height="660" rx="28" fill="url(#accent)"/>

  <g>
    <circle cx="420" cy="370" r="70" fill="#D8E9FF"/>
    <rect x="350" y="450" width="140" height="155" rx="32" fill="#C3DBFF"/>
    <circle cx="600" cy="330" r="82" fill="#CFE4FF"/>
    <rect x="518" y="425" width="164" height="190" rx="34" fill="#B8D5FF"/>
    <circle cx="790" cy="380" r="66" fill="#DDEBFF"/>
    <rect x="724" y="454" width="132" height="146" rx="30" fill="#C9DFFF"/>
  </g>

  <g opacity="0.9">
    <rect x="300" y="670" width="600" height="18" rx="9" fill="#A7C8F5"/>
    <rect x="360" y="705" width="480" height="14" rx="7" fill="#BCD6F7"/>
  </g>
</svg>
